<svg width="20" height="20" viewBox="0 0 20 20" fill="none" xmlns="http://www.w3.org/2000/svg">
<path fill-rule="evenodd" clip-rule="evenodd" d="M2.12016 7.27504C1.66602 8.16634 1.66602 9.33311 1.66602 11.6667C1.66602 14.0002 1.66602 15.167 2.12016 16.0583C2.51963 16.8423 3.15705 17.4797 3.94106 17.8792C4.83235 18.3333 5.99913 18.3333 8.33268 18.3333H11.666C13.9996 18.3333 15.1663 18.3333 16.0576 17.8792C16.8417 17.4797 17.4791 16.8423 17.8785 16.0583C18.3327 15.167 18.3327 14.0002 18.3327 11.6667C18.3327 9.33311 18.3327 8.16634 17.8785 7.27504C17.4791 6.49103 16.8417 5.85361 16.0576 5.45414C15.1663 5 13.9996 5 11.666 5H8.33268C5.99913 5 4.83235 5 3.94106 5.45414C3.15705 5.85361 2.51963 6.49103 2.12016 7.27504ZM12.5489 10.4163C12.7788 10.1588 12.7564 9.76369 12.4989 9.53379C12.2415 9.3039 11.8464 9.32627 11.6165 9.58375L9.1065 12.3949L8.38223 11.5837C8.15234 11.3263 7.75724 11.3039 7.49976 11.5338C7.24228 11.7637 7.21992 12.1588 7.44981 12.4163L8.64029 13.7496C8.75886 13.8824 8.92846 13.9583 9.1065 13.9583C9.28454 13.9583 9.45413 13.8824 9.57271 13.7496L12.5489 10.4163Z" fill="#3D3D3D"/>
<path d="M17.1117 2.88689C15.8913 1.6665 13.9271 1.6665 9.99876 1.6665C6.07039 1.6665 4.10621 1.6665 2.88582 2.88689C2.25458 3.51813 1.94985 4.34837 1.80273 5.54649C2.24495 5.05427 2.77631 4.64424 3.37298 4.34022C4.02422 4.0084 4.72155 3.87384 5.49365 3.81076C6.23959 3.74981 7.15744 3.74982 8.27973 3.74984H11.7178C12.8401 3.74982 13.7579 3.74981 14.5039 3.81076C15.276 3.87384 15.9733 4.0084 16.6245 4.34022C17.2212 4.64424 17.7526 5.05427 18.1948 5.54649C18.0477 4.34837 17.743 3.51813 17.1117 2.88689Z" fill="#3D3D3D"/>
</svg>
