<svg width="25" height="25" viewBox="0 0 25 25" fill="none" xmlns="http://www.w3.org/2000/svg">
<path fill-rule="evenodd" clip-rule="evenodd" d="M2.08203 12.5002C2.08203 7.5897 2.08203 5.13447 3.60752 3.60898C5.133 2.0835 7.58823 2.0835 12.4987 2.0835C17.4092 2.0835 19.8644 2.0835 21.3899 3.60898C22.9154 5.13447 22.9154 7.5897 22.9154 12.5002C22.9154 17.4106 22.9154 19.8659 21.3899 21.3913C19.8644 22.9168 17.4092 22.9168 12.4987 22.9168C7.58823 22.9168 5.133 22.9168 3.60752 21.3913C2.08203 19.8659 2.08203 17.4106 2.08203 12.5002ZM8.33203 15.8856C7.90056 15.8856 7.55078 16.2354 7.55078 16.6668C7.55078 17.0983 7.90056 17.4481 8.33203 17.4481H16.6654C17.0968 17.4481 17.4466 17.0983 17.4466 16.6668C17.4466 16.2354 17.0968 15.8856 16.6654 15.8856H8.33203ZM7.90056 6.86036C8.51075 6.25016 9.49285 6.25016 11.457 6.25016H13.5404C15.5046 6.25016 16.4866 6.25016 17.0968 6.86036C17.707 7.47055 17.707 8.45264 17.707 10.4168V10.6772H19.7904C20.2218 10.6772 20.5716 11.027 20.5716 11.4585C20.5716 11.89 20.2218 12.2397 19.7904 12.2397H5.20703C4.77556 12.2397 4.42578 11.89 4.42578 11.4585C4.42578 11.027 4.77556 10.6772 5.20703 10.6772H7.29037V10.4168C7.29037 8.45264 7.29037 7.47055 7.90056 6.86036Z" fill="#EFB093"/>
</svg>
