<svg width="20" height="20" viewBox="0 0 20 20" fill="none" xmlns="http://www.w3.org/2000/svg">
<path fill-rule="evenodd" clip-rule="evenodd" d="M2.09868 6.51879C1.66602 7.30923 1.66602 8.26275 1.66602 10.1698V11.4373C1.66602 14.688 1.66602 16.3134 2.64233 17.3233C3.61864 18.3332 5.18999 18.3332 8.33268 18.3332H11.666C14.8087 18.3332 16.3801 18.3332 17.3564 17.3233C18.3327 16.3134 18.3327 14.688 18.3327 11.4373V10.1698C18.3327 8.26275 18.3327 7.30923 17.9 6.51879C17.4673 5.72834 16.6769 5.23776 15.096 4.25661L13.4293 3.22223C11.7582 2.18508 10.9226 1.6665 9.99935 1.6665C9.07607 1.6665 8.2405 2.18508 6.56938 3.22223L4.90271 4.25661C3.3218 5.23777 2.53135 5.72834 2.09868 6.51879ZM7.49935 14.3748C7.15417 14.3748 6.87435 14.6547 6.87435 14.9998C6.87435 15.345 7.15417 15.6248 7.49935 15.6248H12.4993C12.8445 15.6248 13.1243 15.345 13.1243 14.9998C13.1243 14.6547 12.8445 14.3748 12.4993 14.3748H7.49935Z" fill="#3D3D3D"/>
</svg>
