<svg width="20" height="20" viewBox="0 0 20 20" fill="none" xmlns="http://www.w3.org/2000/svg">
<path fill-rule="evenodd" clip-rule="evenodd" d="M7.29102 1.67708V18.3332L12.4993 18.3332C14.8564 18.3332 16.0349 18.3332 16.7671 17.6009C17.4993 16.8687 17.4993 15.6902 17.4993 13.3332V6.6665C17.4993 4.30948 17.4993 3.13097 16.7671 2.39874C16.0349 1.6665 14.8564 1.6665 12.4993 1.6665H7.49935L7.29102 1.67708ZM8.95768 5.4165C8.95768 5.07133 9.2375 4.7915 9.58268 4.7915H13.7493C14.0945 4.7915 14.3743 5.07133 14.3743 5.4165C14.3743 5.76168 14.0945 6.0415 13.7493 6.0415H9.58268C9.2375 6.0415 8.95768 5.76168 8.95768 5.4165ZM8.95768 8.33317C8.95768 7.98799 9.2375 7.70817 9.58268 7.70817H13.7493C14.0945 7.70817 14.3743 7.98799 14.3743 8.33317C14.3743 8.67835 14.0945 8.95817 13.7493 8.95817H9.58268C9.2375 8.95817 8.95768 8.67835 8.95768 8.33317ZM2.49993 6.0415C2.50563 4.09506 2.56715 3.06317 3.23158 2.39874C3.79407 1.83625 4.61991 1.70585 6.04102 1.67563V18.324C4.61991 18.2938 3.79407 18.1634 3.23158 17.6009C2.56715 16.9365 2.50563 15.9046 2.49993 13.9582H3.33268C3.67786 13.9582 3.95768 13.6783 3.95768 13.3332C3.95768 12.988 3.67786 12.7082 3.33268 12.7082H2.49935V10.6248H3.33268C3.67786 10.6248 3.95768 10.345 3.95768 9.99984C3.95768 9.65466 3.67786 9.37484 3.33268 9.37484H2.49935V7.2915H3.33268C3.67786 7.2915 3.95768 7.01168 3.95768 6.6665C3.95768 6.32133 3.67786 6.0415 3.33268 6.0415H2.49993ZM2.49993 6.0415H1.66602C1.32084 6.0415 1.04102 6.32133 1.04102 6.6665C1.04102 7.01168 1.32084 7.2915 1.66602 7.2915H2.49935V6.6665C2.49935 6.44826 2.49935 6.24012 2.49993 6.0415ZM2.49935 10.6248H1.66602C1.32084 10.6248 1.04102 10.345 1.04102 9.99984C1.04102 9.65466 1.32084 9.37484 1.66602 9.37484H2.49935V10.6248ZM2.49935 12.7082H1.66602C1.32084 12.7082 1.04102 12.988 1.04102 13.3332C1.04102 13.6783 1.32084 13.9582 1.66602 13.9582H2.49993C2.49935 13.7596 2.49935 13.5514 2.49935 13.3332V12.7082Z" fill="#3D3D3D"/>
</svg>
