<svg width="30" height="30" viewBox="0 0 30 30" fill="none" xmlns="http://www.w3.org/2000/svg">
<rect width="30" height="30" rx="8" fill="#E5F0F8"/>
<rect x="0.5" y="0.5" width="29" height="29" rx="7.5" stroke="#2885C0" stroke-opacity="0.2"/>
<path fill-rule="evenodd" clip-rule="evenodd" d="M13.3165 7.80151V22.792L17.7468 22.792C19.7518 22.792 20.7543 22.792 21.3771 22.133C22 21.474 22 20.4133 22 18.292V12.292C22 10.1707 22 9.11001 21.3771 8.451C20.7543 7.79199 19.7518 7.79199 17.7468 7.79199H13.4937L13.3165 7.80151ZM14.7342 11.167C14.7342 10.8563 14.9722 10.6045 15.2658 10.6045H18.8101C19.1037 10.6045 19.3418 10.8563 19.3418 11.167C19.3418 11.4777 19.1037 11.7295 18.8101 11.7295H15.2658C14.9722 11.7295 14.7342 11.4777 14.7342 11.167ZM14.7342 13.792C14.7342 13.4813 14.9722 13.2295 15.2658 13.2295H18.8101C19.1037 13.2295 19.3418 13.4813 19.3418 13.792C19.3418 14.1027 19.1037 14.3545 18.8101 14.3545H15.2658C14.9722 14.3545 14.7342 14.1027 14.7342 13.792ZM9.241 11.7295C9.24585 9.9777 9.29818 9.04899 9.86337 8.451C10.3418 7.94476 11.0443 7.82741 12.2532 7.8002V22.7838C11.0443 22.7566 10.3418 22.6392 9.86337 22.133C9.29818 21.535 9.24585 20.6063 9.241 18.8545H9.94937C10.243 18.8545 10.481 18.6027 10.481 18.292C10.481 17.9813 10.243 17.7295 9.94937 17.7295H9.24051V15.8545H9.94937C10.243 15.8545 10.481 15.6027 10.481 15.292C10.481 14.9813 10.243 14.7295 9.94937 14.7295H9.24051V12.8545H9.94937C10.243 12.8545 10.481 12.6027 10.481 12.292C10.481 11.9813 10.243 11.7295 9.94937 11.7295H9.241ZM9.241 11.7295H8.53165C8.23803 11.7295 8 11.9813 8 12.292C8 12.6027 8.23803 12.8545 8.53165 12.8545H9.24051V12.292C9.24051 12.0956 9.24051 11.9082 9.241 11.7295ZM9.24051 15.8545H8.53165C8.23803 15.8545 8 15.6027 8 15.292C8 14.9813 8.23803 14.7295 8.53165 14.7295H9.24051V15.8545ZM9.24051 17.7295H8.53165C8.23803 17.7295 8 17.9813 8 18.292C8 18.6027 8.23803 18.8545 8.53165 18.8545H9.241C9.24051 18.6757 9.24051 18.4884 9.24051 18.292V17.7295Z" fill="#2885C0"/>
</svg>
