<svg width="20" height="20" viewBox="0 0 20 20" fill="none" xmlns="http://www.w3.org/2000/svg">
<path fill-rule="evenodd" clip-rule="evenodd" d="M11.899 1.79337C11.5904 1.6665 11.1991 1.6665 10.4167 1.6665C9.63418 1.6665 9.24294 1.6665 8.93433 1.79337C8.52284 1.96253 8.19591 2.28698 8.02546 2.69536C7.94766 2.88179 7.91721 3.09859 7.90529 3.41483C7.88778 3.87957 7.64763 4.30975 7.2418 4.54228C6.83598 4.77481 6.34053 4.76612 5.92624 4.5488C5.64432 4.40092 5.43991 4.31869 5.23832 4.29235C4.79674 4.23465 4.35015 4.35341 3.9968 4.6225C3.73178 4.82432 3.53616 5.16058 3.14492 5.83311C2.75368 6.50564 2.55806 6.84191 2.51446 7.17059C2.45632 7.60884 2.57598 8.05205 2.84712 8.40274C2.97088 8.5628 3.14481 8.69736 3.41475 8.86569C3.8116 9.11316 4.06693 9.53472 4.06691 9.99986C4.06688 10.4649 3.81155 10.8864 3.41475 11.1339C3.14476 11.3022 2.97081 11.4368 2.84704 11.5969C2.5759 11.9476 2.45624 12.3908 2.51437 12.829C2.55798 13.1577 2.7536 13.494 3.14484 14.1665C3.53608 14.839 3.7317 15.1753 3.99671 15.3771C4.35007 15.6462 4.79666 15.765 5.23824 15.7073C5.43981 15.6809 5.64421 15.5987 5.92611 15.4508C6.34043 15.2335 6.83592 15.2248 7.24177 15.4574C7.64762 15.6899 7.88778 16.1201 7.90529 16.5849C7.91721 16.9011 7.94766 17.1179 8.02546 17.3043C8.19591 17.7127 8.52284 18.0371 8.93433 18.2063C9.24294 18.3332 9.63418 18.3332 10.4167 18.3332C11.1991 18.3332 11.5904 18.3332 11.899 18.2063C12.3105 18.0371 12.6374 17.7127 12.8079 17.3043C12.8857 17.1179 12.9161 16.9011 12.928 16.5848C12.9456 16.1201 13.1857 15.6899 13.5915 15.4574C13.9973 15.2248 14.4928 15.2335 14.9072 15.4508C15.1891 15.5987 15.3934 15.6809 15.595 15.7072C16.0366 15.7649 16.4832 15.6461 16.8365 15.3771C17.1016 15.1752 17.2972 14.839 17.6884 14.1664C18.0797 13.4939 18.2753 13.1577 18.3189 12.829C18.377 12.3907 18.2573 11.9475 17.9862 11.5968C17.8624 11.4367 17.6885 11.3022 17.4185 11.1338C17.0217 10.8864 16.7664 10.4649 16.7664 9.99976C16.7664 9.53471 17.0218 9.11324 17.4185 8.86583C17.6885 8.69746 17.8625 8.56288 17.9863 8.40279C18.2574 8.05211 18.3771 7.60889 18.319 7.17065C18.2754 6.84196 18.0797 6.5057 17.6885 5.83317C17.2973 5.16064 17.1016 4.82438 16.8366 4.62256C16.4833 4.35347 16.0367 4.23471 15.5951 4.29241C15.3935 4.31874 15.1891 4.40097 14.9072 4.54883C14.4929 4.76616 13.9974 4.77485 13.5916 4.54231C13.1857 4.30976 12.9456 3.87955 12.928 3.41479C12.9161 3.09857 12.8857 2.88178 12.8079 2.69536C12.6374 2.28698 12.3105 1.96253 11.899 1.79337ZM10.4167 12.4998C11.8079 12.4998 12.9357 11.3805 12.9357 9.99984C12.9357 8.61913 11.8079 7.49984 10.4167 7.49984C9.02544 7.49984 7.89763 8.61913 7.89763 9.99984C7.89763 11.3805 9.02544 12.4998 10.4167 12.4998Z" fill="#3D3D3D"/>
</svg>
