<svg width="20" height="20" viewBox="0 0 20 20" fill="none" xmlns="http://www.w3.org/2000/svg">
<path fill-rule="evenodd" clip-rule="evenodd" d="M3.47631 2.64281C2.5 3.61913 2.5 5.19047 2.5 8.33317V11.6665C2.5 14.8092 2.5 16.3805 3.47631 17.3569C4.45262 18.3332 6.02397 18.3332 9.16667 18.3332H10.8333C13.976 18.3332 15.5474 18.3332 16.5237 17.3569C17.5 16.3805 17.5 14.8092 17.5 11.6665V8.33317C17.5 5.19047 17.5 3.61913 16.5237 2.64281C15.5474 1.6665 13.976 1.6665 10.8333 1.6665H9.16667C6.02397 1.6665 4.45262 1.6665 3.47631 2.64281ZM10.625 4.99984C10.625 4.65466 10.3452 4.37484 9.99999 4.37484C9.65481 4.37484 9.37499 4.65466 9.37499 4.99984V6.0415H8.33331C7.98813 6.0415 7.70831 6.32133 7.70831 6.6665C7.70831 7.01168 7.98813 7.2915 8.33331 7.2915H9.37499L9.37499 8.33317C9.37499 8.67835 9.65481 8.95817 9.99999 8.95817C10.3452 8.95817 10.625 8.67835 10.625 8.33317V7.2915L11.6666 7.2915C12.0118 7.2915 12.2916 7.01168 12.2916 6.6665C12.2916 6.32133 12.0118 6.0415 11.6666 6.0415H10.625V4.99984ZM6.66667 11.0415C6.32149 11.0415 6.04167 11.3213 6.04167 11.6665C6.04167 12.0117 6.32149 12.2915 6.66667 12.2915H13.3333C13.6785 12.2915 13.9583 12.0117 13.9583 11.6665C13.9583 11.3213 13.6785 11.0415 13.3333 11.0415H6.66667ZM7.5 14.3748C7.15482 14.3748 6.875 14.6547 6.875 14.9998C6.875 15.345 7.15482 15.6248 7.5 15.6248H12.5C12.8452 15.6248 13.125 15.345 13.125 14.9998C13.125 14.6547 12.8452 14.3748 12.5 14.3748H7.5Z" fill="#3D3D3D"/>
</svg>
