<svg width="42" height="44" viewBox="0 0 42 44" fill="none" xmlns="http://www.w3.org/2000/svg">
<mask id="path-1-inside-1_35_18011" fill="white">
<path d="M0 0H42V44H0V0Z"/>
</mask>
<path d="M0 0H42V44H0V0Z" fill="white" fill-opacity="0.01"/>
<path d="M0 0V-1H-1V0H0ZM0 0V1H42V0V-1H0V0ZM0 44H1V0H0H-1V44H0Z" fill="#E5F0F8" mask="url(#path-1-inside-1_35_18011)"/>
<rect x="6" y="7" width="30" height="30" rx="8" fill="#2885C0"/>
<path d="M19.3125 21.792C19.3125 20.86 20.068 20.1045 21 20.1045C21.932 20.1045 22.6875 20.86 22.6875 21.792C22.6875 22.724 21.932 23.4795 21 23.4795C20.068 23.4795 19.3125 22.724 19.3125 21.792Z" fill="white"/>
<path fill-rule="evenodd" clip-rule="evenodd" d="M13.5 21.792C13.5 23.0215 13.8187 23.4356 14.4562 24.2637C15.729 25.9173 17.8636 27.792 21 27.792C24.1364 27.792 26.271 25.9173 27.5438 24.2637C28.1813 23.4356 28.5 23.0215 28.5 21.792C28.5 20.5625 28.1813 20.1484 27.5438 19.3202C26.271 17.6667 24.1364 15.792 21 15.792C17.8636 15.792 15.729 17.6667 14.4562 19.3202C13.8187 20.1484 13.5 20.5625 13.5 21.792ZM21 18.9795C19.4467 18.9795 18.1875 20.2387 18.1875 21.792C18.1875 23.3453 19.4467 24.6045 21 24.6045C22.5533 24.6045 23.8125 23.3453 23.8125 21.792C23.8125 20.2387 22.5533 18.9795 21 18.9795Z" fill="white"/>
</svg>

