<svg width="20" height="20" viewBox="0 0 20 20" fill="none" xmlns="http://www.w3.org/2000/svg">
<path fill-rule="evenodd" clip-rule="evenodd" d="M1.66602 9.99984C1.66602 9.26516 1.66602 8.59919 1.674 7.99393C1.72098 7.83154 1.77714 7.68926 1.8437 7.55862C2.18325 6.89221 2.72506 6.35041 3.39147 6.01086C3.73432 5.83616 4.15744 5.73314 4.81359 5.67953C4.93821 5.66935 5.06924 5.66106 5.20768 5.65432V9.02566C5.20768 9.41531 5.20767 9.73492 5.22217 9.98641C5.23647 10.2345 5.26722 10.4914 5.36911 10.7208C5.73696 11.549 6.64446 11.9956 7.52507 11.7818C7.76898 11.7226 7.99134 11.5902 8.19661 11.4501C8.40472 11.3082 8.65794 11.1132 8.96666 10.8755L8.98213 10.8636C9.37322 10.5624 9.48332 10.4835 9.58427 10.4396C9.84903 10.3246 10.1497 10.3246 10.4144 10.4396C10.5154 10.4835 10.6255 10.5624 11.0166 10.8636L11.032 10.8754C11.3407 11.1132 11.594 11.3082 11.8021 11.4501C12.0074 11.5902 12.2297 11.7226 12.4736 11.7818C13.3542 11.9956 14.2617 11.549 14.6296 10.7208C14.7315 10.4914 14.7622 10.2345 14.7765 9.98641C14.791 9.73491 14.791 9.41529 14.791 9.02563V5.65432C14.9295 5.66106 15.0605 5.66935 15.1851 5.67953C15.8413 5.73314 16.2644 5.83616 16.6072 6.01086C17.2736 6.35041 17.8154 6.89221 18.155 7.55862C18.2216 7.68926 18.2777 7.83154 18.3247 7.99393C18.3327 8.59919 18.3327 9.26517 18.3327 9.99984C18.3327 13.9282 18.3327 15.8924 17.1123 17.1128C15.8919 18.3332 13.9277 18.3332 9.99935 18.3332C6.07098 18.3332 4.10679 18.3332 2.8864 17.1128C1.66602 15.8924 1.66602 13.9282 1.66602 9.99984ZM18.2021 5.60246C18.0576 4.37415 17.7533 3.52792 17.1123 2.88689C15.8919 1.6665 13.9277 1.6665 9.99935 1.6665C6.07098 1.6665 4.10679 1.6665 2.8864 2.88689C2.24538 3.52792 1.94106 4.37415 1.79659 5.60246C2.10505 5.32526 2.45002 5.08764 2.82398 4.8971C3.37242 4.61765 3.97834 4.49361 4.7118 4.43368C5.43209 4.37483 6.32828 4.37483 7.47138 4.37484H12.5273C13.6704 4.37483 14.5666 4.37483 15.2869 4.43368C16.0204 4.49361 16.6263 4.61765 17.1747 4.8971C17.5487 5.08764 17.8936 5.32526 18.2021 5.60246Z" fill="#3D3D3D"/>
<path d="M6.45768 9.00617V5.62678C6.77366 5.62489 7.1192 5.62484 7.49935 5.62484H12.4993C12.8795 5.62484 13.225 5.62489 13.541 5.62678V9.00617C13.541 9.42011 13.5408 9.70337 13.5286 9.91449C13.516 10.1332 13.4929 10.2005 13.4872 10.2134C13.3646 10.4895 13.0621 10.6383 12.7686 10.5671C12.7548 10.5637 12.6874 10.5409 12.5064 10.4175C12.3318 10.2983 12.1072 10.1257 11.7792 9.87317L11.7234 9.83014C11.4149 9.59229 11.1744 9.40693 10.9125 9.29314C10.33 9.04007 9.66866 9.04007 9.08617 9.29314C8.82427 9.40692 8.58383 9.5923 8.27535 9.83014L8.21951 9.87317C7.89153 10.1257 7.66695 10.2983 7.49225 10.4175C7.31125 10.5409 7.24387 10.5637 7.23014 10.5671C6.93661 10.6383 6.63411 10.4895 6.51149 10.2134C6.50576 10.2005 6.48271 10.1332 6.4701 9.91449C6.45793 9.70337 6.45768 9.42011 6.45768 9.00617Z" fill="#3D3D3D"/>
</svg>
