<svg width="25" height="25" viewBox="0 0 25 25" fill="none" xmlns="http://www.w3.org/2000/svg">
<path fill-rule="evenodd" clip-rule="evenodd" d="M2.08203 12.5002C2.08203 7.5897 2.08203 5.13447 3.60752 3.60898C5.133 2.0835 7.58823 2.0835 12.4987 2.0835C17.4092 2.0835 19.8644 2.0835 21.3899 3.60898C22.9154 5.13447 22.9154 7.5897 22.9154 12.5002C22.9154 17.4106 22.9154 19.8659 21.3899 21.3913C19.8644 22.9168 17.4092 22.9168 12.4987 22.9168C7.58823 22.9168 5.133 22.9168 3.60752 21.3913C2.08203 19.8659 2.08203 17.4106 2.08203 12.5002ZM14.582 8.07308C14.1506 8.07308 13.8008 7.7233 13.8008 7.29183C13.8008 6.86036 14.1506 6.51058 14.582 6.51058H17.707C18.1385 6.51058 18.4883 6.86036 18.4883 7.29183V10.4168C18.4883 10.8483 18.1385 11.1981 17.707 11.1981C17.2756 11.1981 16.9258 10.8483 16.9258 10.4168V9.17793L14.6136 11.4901C14.3085 11.7952 13.8139 11.7952 13.5088 11.4901C13.2037 11.185 13.2037 10.6903 13.5088 10.3852L15.8209 8.07308H14.582ZM11.4886 13.5102C11.7937 13.8153 11.7937 14.31 11.4886 14.6151L9.17647 16.9272H10.4154C10.8468 16.9272 11.1966 17.277 11.1966 17.7085C11.1966 18.14 10.8468 18.4897 10.4154 18.4897H7.29037C6.85889 18.4897 6.50911 18.14 6.50911 17.7085V14.5835C6.50911 14.152 6.85889 13.8022 7.29037 13.8022C7.72184 13.8022 8.07162 14.152 8.07162 14.5835V15.8224L10.3838 13.5102C10.6889 13.2051 11.1835 13.2051 11.4886 13.5102ZM11.1966 7.29183C11.1966 7.7233 10.8468 8.07308 10.4154 8.07308H9.17647L11.4886 10.3852C11.7937 10.6903 11.7937 11.185 11.4886 11.4901C11.1835 11.7952 10.6889 11.7952 10.3838 11.4901L8.07162 9.17793V10.4168C8.07162 10.8483 7.72184 11.1981 7.29037 11.1981C6.85889 11.1981 6.50911 10.8483 6.50911 10.4168V7.29183C6.50911 6.86036 6.85889 6.51058 7.29037 6.51058H10.4154C10.8468 6.51058 11.1966 6.86036 11.1966 7.29183ZM13.5088 14.6151C13.2037 14.31 13.2037 13.8153 13.5088 13.5102C13.8139 13.2051 14.3085 13.2051 14.6136 13.5102L16.9258 15.8224V14.5835C16.9258 14.152 17.2756 13.8022 17.707 13.8022C18.1385 13.8022 18.4883 14.152 18.4883 14.5835V17.7085C18.4883 18.14 18.1385 18.4897 17.707 18.4897H14.582C14.1506 18.4897 13.8008 18.14 13.8008 17.7085C13.8008 17.277 14.1506 16.9272 14.582 16.9272H15.8209L13.5088 14.6151Z" fill="#2885C0"/>
</svg>

