<svg width="25" height="25" viewBox="0 0 25 25" fill="none" xmlns="http://www.w3.org/2000/svg">
<path fill-rule="evenodd" clip-rule="evenodd" d="M2.20978 13.3501C2.50931 14.3945 3.31427 15.1995 4.9242 16.8094L6.83007 18.7153C9.6311 21.5163 11.0316 22.9168 12.7719 22.9168C14.5123 22.9168 15.9128 21.5163 18.7138 18.7153C21.5149 15.9143 22.9154 14.5137 22.9154 12.7734C22.9154 11.0331 21.5149 9.63257 18.7138 6.83154L16.808 4.92567C15.198 3.31574 14.3931 2.51077 13.3487 2.21124C12.3043 1.91172 11.195 2.1677 8.97657 2.67966L7.69721 2.97489C5.83079 3.4056 4.89758 3.62096 4.25854 4.26C3.6195 4.89904 3.40414 5.83225 2.97343 7.69867L2.67819 8.97803C2.16623 11.1965 1.91025 12.3058 2.20978 13.3501ZM10.5439 7.5741C11.3643 8.3945 11.3643 9.72463 10.5439 10.545C9.7235 11.3654 8.39336 11.3654 7.57296 10.545C6.75256 9.72463 6.75256 8.3945 7.57296 7.5741C8.39336 6.75369 9.7235 6.75369 10.5439 7.5741ZM19.8436 12.5534L12.5738 19.8234C12.2687 20.1285 11.774 20.1285 11.4689 19.8234C11.1638 19.5183 11.1638 19.0237 11.4689 18.7186L18.7387 11.4485C19.0438 11.1434 19.5385 11.1434 19.8436 11.4485C20.1487 11.7536 20.1487 12.2483 19.8436 12.5534Z" fill="#EFB093"/>
</svg>

