<svg width="19" height="19" viewBox="0 0 19 19" fill="none" xmlns="http://www.w3.org/2000/svg">
<path d="M1.58398 9.49984C1.58398 6.51428 1.58398 5.02149 2.51148 4.094C3.43897 3.1665 4.93176 3.1665 7.91732 3.1665H11.084C14.0695 3.1665 15.5623 3.1665 16.4898 4.094C17.4173 5.02149 17.4173 6.51428 17.4173 9.49984V11.0832C17.4173 14.0687 17.4173 15.5615 16.4898 16.489C15.5623 17.4165 14.0695 17.4165 11.084 17.4165H7.91732C4.93176 17.4165 3.43897 17.4165 2.51148 16.489C1.58398 15.5615 1.58398 14.0687 1.58398 11.0832V9.49984Z" stroke="#3D3D3D"/>
<path d="M5.54102 3.1665V1.979" stroke="#3D3D3D" stroke-linecap="round"/>
<path d="M13.459 3.1665V1.979" stroke="#3D3D3D" stroke-linecap="round"/>
<path d="M1.97852 7.125H17.0202" stroke="#3D3D3D" stroke-linecap="round"/>
<path d="M14.2493 13.4583C14.2493 13.8956 13.8949 14.25 13.4577 14.25C13.0205 14.25 12.666 13.8956 12.666 13.4583C12.666 13.0211 13.0205 12.6667 13.4577 12.6667C13.8949 12.6667 14.2493 13.0211 14.2493 13.4583Z" fill="#3D3D3D"/>
<path d="M14.2493 10.2917C14.2493 10.7289 13.8949 11.0833 13.4577 11.0833C13.0205 11.0833 12.666 10.7289 12.666 10.2917C12.666 9.85444 13.0205 9.5 13.4577 9.5C13.8949 9.5 14.2493 9.85444 14.2493 10.2917Z" fill="#3D3D3D"/>
<path d="M10.2923 13.4583C10.2923 13.8956 9.93788 14.25 9.50065 14.25C9.06343 14.25 8.70898 13.8956 8.70898 13.4583C8.70898 13.0211 9.06343 12.6667 9.50065 12.6667C9.93788 12.6667 10.2923 13.0211 10.2923 13.4583Z" fill="#3D3D3D"/>
<path d="M10.2923 10.2917C10.2923 10.7289 9.93788 11.0833 9.50065 11.0833C9.06343 11.0833 8.70898 10.7289 8.70898 10.2917C8.70898 9.85444 9.06343 9.5 9.50065 9.5C9.93788 9.5 10.2923 9.85444 10.2923 10.2917Z" fill="#3D3D3D"/>
<path d="M6.33333 13.4583C6.33333 13.8956 5.97889 14.25 5.54167 14.25C5.10444 14.25 4.75 13.8956 4.75 13.4583C4.75 13.0211 5.10444 12.6667 5.54167 12.6667C5.97889 12.6667 6.33333 13.0211 6.33333 13.4583Z" fill="#3D3D3D"/>
<path d="M6.33333 10.2917C6.33333 10.7289 5.97889 11.0833 5.54167 11.0833C5.10444 11.0833 4.75 10.7289 4.75 10.2917C4.75 9.85444 5.10444 9.5 5.54167 9.5C5.97889 9.5 6.33333 9.85444 6.33333 10.2917Z" fill="#3D3D3D"/>
</svg>

