<svg width="171" height="19" viewBox="0 0 171 19" fill="none" xmlns="http://www.w3.org/2000/svg">
<path d="M16.9712 17.9954C16.9712 17.9954 17.0549 18.9999 16.4987 18.9999C15.8036 18.9999 14.1907 17.8843 14.1907 16.1544V4.10151C13.6064 9.37412 12.1042 18.9999 8.48848 18.9999C4.87273 18.9999 3.36956 9.37517 2.78628 4.10151V16.1533C2.78628 17.8833 1.17335 18.9988 0.449994 18.9988C-0.0778906 18.9988 0.00468997 17.9944 0.00468997 17.9944V1.03273C0.00468997 0.419389 0.477174 0.0838877 1.28416 0.0283203H2.48C2.72983 0.0283203 3.28698 0.307205 3.42601 0.864975C3.42601 0.864975 5.03894 15.1489 8.48848 15.1489C11.9934 15.1489 13.5509 0.864975 13.5509 0.864975C13.69 0.307205 14.2179 0.0283203 14.4687 0.0283203H15.6928C16.5834 0.0283203 16.9723 0.362773 16.9723 1.00442V17.9954H16.9712Z" fill="#2885C0"/>
<path d="M33.4111 17.9954C33.4111 17.9954 33.4948 18.9999 32.9658 18.9999C32.2425 18.9999 30.6295 17.8843 30.6295 16.1544V7.61693C30.4069 8.31415 29.74 10.9373 27.6253 13.9495C25.2336 17.3811 22.5911 18.9988 21.645 18.9988C21.5614 18.9988 21.3116 18.9988 21.2551 18.9988C20.3374 18.9988 19.7812 18.6644 19.7812 17.9944V2.87379C19.7812 1.14386 21.3942 0.0283203 22.0904 0.0283203C22.6465 0.0283203 22.5628 1.03273 22.5628 1.03273V15.9866C22.5628 15.9866 24.9273 15.9028 27.4863 12.3601C30.3787 8.37076 30.6295 5.2181 30.6295 1.95431V1.03377C30.6295 0.363821 31.1857 0.0293682 32.1034 0.0293682C33.0223 0.0293682 33.4111 0.363822 33.4111 1.00547V17.9954Z" fill="#2885C0"/>
<path d="M47.3765 2.67878C47.3765 4.01764 46.4587 6.1942 44.1778 8.20301C42.2304 9.87737 40.0896 10.5746 38.4485 11.2718V16.1816C38.4485 17.9116 36.8627 18.9999 36.1676 18.9999C35.6387 18.9999 35.6951 18.0238 35.6951 18.0238V1.03273C35.6951 0.362773 36.1958 0.0283203 37.169 0.0283203H42.843C45.7636 0.0283203 47.3765 0.893284 47.3765 2.67878ZM41.6471 0.837717H39.7279C39.2826 0.837717 38.9492 0.893285 38.7819 1.00547C38.5593 1.17322 38.4485 1.4521 38.4485 1.89874V10.1846C39.6161 9.90568 41.8416 8.62239 43.1493 6.41857C44.874 3.48817 44.6232 0.837717 41.6471 0.837717Z" fill="#2885C0"/>
<path d="M61.5637 18.5814C61.5637 18.8603 61.3965 18.9715 61.0358 18.9715H59.4229C58.9222 18.9715 58.5041 18.5814 58.2271 17.772L53.1928 4.24087C52.1914 6.61244 49.3826 16.4604 48.9927 17.7437C48.6028 19.027 48.1857 18.9715 47.2408 18.9715C46.601 18.9715 46.2676 18.7209 46.2676 18.2187C46.2676 17.772 46.9073 16.0149 48.1868 12.9461C48.7157 11.6072 51.8025 4.88356 52.4423 3.5164C53.0266 2.28867 51.7189 1.31257 50.8565 1.14482C50.3004 1.06095 50.0224 0.810372 50.0224 0.503179C50.0224 0.168726 50.8565 0.000976562 52.4977 0.000976562C53.6381 0.000976562 54.8622 0.587055 55.5573 2.06536C57.8915 7.25409 61.5637 18.5531 61.5637 18.5814Z" fill="#2885C0"/>
<path d="M77.419 17.9954C77.419 17.9954 77.5026 18.9999 76.9736 18.9999C76.2503 18.9999 74.6374 17.8843 74.6374 16.1544V7.61693C74.4147 8.31415 73.7478 10.9373 71.6331 13.9495C69.2414 17.3811 66.5989 18.9988 65.6529 18.9988C65.5692 18.9988 65.3194 18.9988 65.263 18.9988C64.3452 18.9988 63.7891 18.6644 63.7891 17.9944V2.87379C63.7891 1.14386 65.402 0.0283203 66.0982 0.0283203C66.6543 0.0283203 66.5707 1.03273 66.5707 1.03273V15.9866C66.5707 15.9866 68.9352 15.9028 71.4941 12.3601C74.3865 8.37076 74.6374 5.2181 74.6374 1.95431V1.03377C74.6374 0.363821 75.1935 0.0293682 76.1113 0.0293682C77.029 0.0293682 77.419 0.363822 77.419 1.00547V17.9954Z" fill="#2885C0"/>
<path d="M79.6738 0.977231C79.6738 0.363893 80.0355 0.0283916 80.9533 0.0283916C81.8711 0.0283916 82.4272 0.362844 82.4272 1.0328V16.1545C82.4272 17.8844 80.8415 18.9999 80.1181 18.9999C79.5892 18.9999 79.6728 17.9955 79.6728 17.9955V0.977231H79.6738ZM91.6061 16.8234C90.9664 16.1817 88.2684 13.2241 87.4615 12.3035C85.6813 10.2392 84.3736 8.78811 84.4572 7.2815C84.4854 6.61155 85.0133 5.69102 85.9311 4.37942C87.1269 2.73337 88.2956 1.98059 89.1026 3.12444C89.1026 3.12444 90.0758 4.82605 90.8545 3.76608C91.2434 3.26388 90.9654 1.56226 90.7155 1.03175C90.3821 0.361796 89.9357 0.0273438 89.3807 0.0273438C88.351 0.0273438 86.6827 1.75727 84.3736 5.21607C83.3168 6.77825 82.7878 8.11816 82.7878 9.20539C82.7878 10.0987 83.1213 11.4092 84.3171 12.8603C84.9286 13.613 88.489 17.7145 89.2124 18.4401C89.9075 19.1656 90.7981 19.11 91.2706 18.6078C91.7452 18.135 92.2187 17.465 91.6061 16.8234Z" fill="#2885C0"/>
<path d="M109.464 2.12101C109.464 4.82703 109.241 5.46868 108.769 5.46868C108.491 5.46868 108.074 4.68759 107.768 3.87819C106.933 1.72994 106.572 0.781102 105.097 0.781102C104.929 0.781102 103.706 0.781102 103.427 0.781102C102.843 0.781102 102.426 0.892235 102.203 1.17112C102.009 1.42275 101.925 1.84107 101.925 2.45441V16.1533C101.925 17.8833 100.34 18.9988 99.6161 18.9988C99.0872 18.9988 99.1708 17.9944 99.1708 17.9944V15.5956V1.00442C99.1708 0.362773 99.4771 0.0283203 100.06 0.0283203H107.793C108.488 0.0283203 108.961 0.223331 109.184 0.586091C109.381 0.893285 109.464 1.39549 109.464 2.12101Z" fill="#2885C0"/>
<path d="M124.765 18.5814C124.765 18.8603 124.598 18.9715 124.237 18.9715H122.624C122.123 18.9715 121.705 18.5814 121.428 17.772L116.394 4.24087C115.393 6.61244 112.584 16.4604 112.194 17.7437C111.804 19.027 111.387 18.9715 110.442 18.9715C109.802 18.9715 109.469 18.7209 109.469 18.2187C109.469 17.772 110.108 16.0149 111.388 12.9461C111.917 11.6072 115.004 4.88356 115.643 3.5164C116.228 2.28867 114.92 1.31257 114.058 1.14482C113.502 1.06095 113.224 0.810372 113.224 0.503179C113.224 0.168726 114.058 0.000976562 115.699 0.000976562C116.839 0.000976562 118.063 0.587055 118.758 2.06536C121.093 7.25409 124.765 18.5531 124.765 18.5814Z" fill="#2885C0"/>
<path d="M141.178 18.9999H139.592C139.063 18.9999 138.673 18.6089 138.368 17.8005L136.059 11.5508C136.059 11.5508 135.92 14.0335 133.166 16.7395C131.247 18.6089 128.355 18.9989 127.409 18.9989C126.769 18.9989 126.436 18.7472 126.436 18.245C126.436 17.7984 127.075 16.0412 128.327 12.9724C128.883 11.6336 131.942 4.90993 132.582 3.54276C133.194 2.31504 131.859 1.33894 131.023 1.17119C130.467 1.08732 130.189 0.836739 130.189 0.529546C130.189 0.195094 130.996 0.0273438 132.637 0.0273438C133.777 0.0273438 135.029 0.613422 135.697 2.09172C138.062 7.2815 141.733 18.5805 141.733 18.6078C141.734 18.8877 141.567 18.9999 141.178 18.9999ZM133.334 4.26933C132.36 6.64091 131.275 10.0169 130.024 14.7317C130.024 14.7317 131.275 15.2056 133.306 13.8668C135.227 12.5835 135.505 10.1008 135.505 10.1008L133.334 4.26933Z" fill="#2885C0"/>
<path d="M155.809 14.2013C154.085 17.8278 150.831 18.9444 150.469 18.9717C149.968 19 143.293 16.8234 143.432 9.62589C143.543 2.42835 149.079 0.0567761 150.107 0.00120879C150.413 -0.0270991 153.307 0.419536 155.17 3.71164C155.17 3.71164 155.56 4.46442 155.031 5.18994C154.614 5.83159 154.585 5.88715 154.057 6.58541C153.557 7.28263 153.084 5.97208 152.166 4.79992C150.608 2.56779 148.912 1.56338 148.689 1.59169C147.799 1.73114 146.297 3.6005 145.824 4.85549C143.682 10.6303 151.358 17.1306 151.804 17.0478C152.777 16.9084 154.029 15.5129 154.502 14.174C154.557 14.0346 154.669 13.3374 155.364 13.3374C156.282 13.3363 155.809 14.2013 155.809 14.2013Z" fill="#2885C0"/>
<path d="M170.024 14.2013C168.299 17.8278 165.045 18.9444 164.684 18.9717C164.183 19 157.508 16.8234 157.647 9.62589C157.757 2.42835 163.293 0.0567761 164.322 0.00120879C164.628 -0.0270991 167.522 0.419536 169.385 3.71164C169.385 3.71164 169.774 4.46442 169.246 5.18994C168.828 5.83159 168.8 5.88715 168.272 6.58541C167.772 7.28263 167.299 5.97208 166.381 4.79992C164.823 2.56779 163.127 1.56338 162.904 1.59169C162.014 1.73114 160.512 3.6005 160.038 4.85549C157.897 10.6303 165.573 17.1306 166.019 17.0478C166.992 16.9084 168.244 15.5129 168.717 14.174C168.772 14.0346 168.884 13.3374 169.579 13.3374C170.497 13.3363 170.024 14.2013 170.024 14.2013Z" fill="#2885C0"/>
</svg>
