<svg width="30" height="20" viewBox="0 0 30 20" fill="none" xmlns="http://www.w3.org/2000/svg">
<path d="M17.2348 18.1904C17.2348 18.1904 17.3193 19.2067 16.7544 19.2067C16.0483 19.2067 14.4104 18.077 14.4104 16.3257V4.1242C13.8177 9.46267 12.2921 19.2078 8.61936 19.2078C4.94663 19.2078 3.42208 9.46267 2.82938 4.1242V16.3267C2.82938 18.078 1.19144 19.2078 0.456483 19.2078C-0.0805618 19.2078 0.00499537 18.1914 0.00499537 18.1914V1.01636C0.00499537 0.394793 0.485345 0.0556627 1.3038 0H2.51808C2.77268 0 3.33756 0.282437 3.47878 0.847311C3.47878 0.847311 5.11671 15.3093 8.61936 15.3093C12.1787 15.3093 13.7599 0.847311 13.7599 0.847311C13.9012 0.282437 14.4382 0 14.6918 0H15.9349C16.8389 0 17.2348 0.33913 17.2348 0.988529V18.1904Z" fill="#2885C0"/>
<path d="M30.001 2.11828C30.001 4.85812 29.7753 5.50752 29.2949 5.50752C29.0125 5.50752 28.5888 4.7169 28.2775 3.89742C27.4302 1.72245 27.0632 0.761755 25.5665 0.761755C25.3964 0.761755 24.1543 0.761755 23.8719 0.761755C23.2792 0.761755 22.8545 0.875142 22.6288 1.15758C22.4308 1.41218 22.3463 1.83584 22.3463 2.45638V16.3246C22.3463 18.076 20.7362 19.2057 20.0023 19.2057C19.4652 19.2057 19.5498 18.1894 19.5498 18.1894V15.7598V0.988529C19.5498 0.33913 19.8611 0 20.4538 0H28.3064C29.0125 0 29.4928 0.197912 29.7186 0.564873C29.9165 0.876173 30.001 1.38435 30.001 2.11828Z" fill="#2885C0"/>
</svg>
