<svg width="20" height="20" viewBox="0 0 20 20" fill="none" xmlns="http://www.w3.org/2000/svg">
<path d="M18.3327 9.16667V10.8333C18.3327 13.976 18.3327 15.5474 17.3564 16.5237C16.5444 17.3356 15.3209 17.4723 13.1243 17.4953V2.50466C15.3209 2.52767 16.5444 2.66437 17.3564 3.47631C18.3327 4.45262 18.3327 6.02397 18.3327 9.16667Z" fill="#3D3D3D"/>
<path fill-rule="evenodd" clip-rule="evenodd" d="M8.33268 2.5H11.666H11.8743L11.8743 17.5H11.666H8.33268C5.18999 17.5 3.61864 17.5 2.64233 16.5237C1.66602 15.5474 1.66602 13.976 1.66602 10.8333V9.16667C1.66602 6.02397 1.66602 4.45262 2.64233 3.47631C3.61864 2.5 5.18999 2.5 8.33268 2.5ZM3.95768 8.33333C3.95768 7.98816 4.2375 7.70833 4.58268 7.70833H9.58268C9.92786 7.70833 10.2077 7.98816 10.2077 8.33333C10.2077 8.67851 9.92786 8.95833 9.58268 8.95833H4.58268C4.2375 8.95833 3.95768 8.67851 3.95768 8.33333ZM4.79102 11.6667C4.79102 11.3215 5.07084 11.0417 5.41602 11.0417H8.74935C9.09453 11.0417 9.37435 11.3215 9.37435 11.6667C9.37435 12.0118 9.09453 12.2917 8.74935 12.2917H5.41602C5.07084 12.2917 4.79102 12.0118 4.79102 11.6667Z" fill="#3D3D3D"/>
</svg>
