<svg width="20" height="20" viewBox="0 0 20 20" fill="none" xmlns="http://www.w3.org/2000/svg">
<path fill-rule="evenodd" clip-rule="evenodd" d="M1.66602 5.52829C1.66602 3.39549 3.395 1.6665 5.5278 1.6665C7.66061 1.6665 9.38959 3.39549 9.38959 5.52829C9.38959 7.6611 7.66061 9.39008 5.5278 9.39008C3.395 9.39008 1.66602 7.6611 1.66602 5.52829Z" fill="#3D3D3D"/>
<path fill-rule="evenodd" clip-rule="evenodd" d="M10.6091 14.4714C10.6091 12.3386 12.3381 10.6096 14.4709 10.6096C16.6037 10.6096 18.3327 12.3386 18.3327 14.4714C18.3327 16.6042 16.6037 18.3332 14.4709 18.3332C12.3381 18.3332 10.6091 16.6042 10.6091 14.4714Z" fill="#3D3D3D"/>
<path d="M1.66602 14.5832C1.66602 12.8154 1.66602 11.9315 2.21519 11.3823C2.76437 10.8332 3.64825 10.8332 5.41602 10.8332C7.18378 10.8332 8.06767 10.8332 8.61684 11.3823C9.16602 11.9315 9.16602 12.8154 9.16602 14.5832C9.16602 16.3509 9.16602 17.2348 8.61684 17.784C8.06767 18.3332 7.18378 18.3332 5.41602 18.3332C3.64825 18.3332 2.76437 18.3332 2.21519 17.784C1.66602 17.2348 1.66602 16.3509 1.66602 14.5832Z" fill="#3D3D3D"/>
<path d="M10.8327 5.4165C10.8327 3.64874 10.8327 2.76485 11.3819 2.21568C11.931 1.6665 12.8149 1.6665 14.5827 1.6665C16.3504 1.6665 17.2343 1.6665 17.7835 2.21568C18.3327 2.76485 18.3327 3.64874 18.3327 5.4165C18.3327 7.18427 18.3327 8.06815 17.7835 8.61733C17.2343 9.1665 16.3504 9.1665 14.5827 9.1665C12.8149 9.1665 11.931 9.1665 11.3819 8.61733C10.8327 8.06815 10.8327 7.18427 10.8327 5.4165Z" fill="#3D3D3D"/>
</svg>
