<svg width="30" height="30" viewBox="0 0 30 30" fill="none" xmlns="http://www.w3.org/2000/svg">
<rect width="30" height="30" rx="8" fill="#2885C0"/>
<path d="M9.431 20.21C8.731 20.21 8.122 20.1073 7.604 19.902C7.086 19.6967 6.652 19.4307 6.302 19.104C5.95667 18.7727 5.693 18.4203 5.511 18.047L6.785 17.221C6.897 17.4963 7.065 17.7553 7.289 17.998C7.51767 18.2407 7.81167 18.439 8.171 18.593C8.535 18.7423 8.976 18.817 9.494 18.817C10.012 18.817 10.439 18.74 10.775 18.586C11.111 18.4273 11.3607 18.2173 11.524 17.956C11.692 17.69 11.776 17.3913 11.776 17.06C11.776 16.6727 11.6733 16.374 11.468 16.164C11.2673 15.9493 10.999 15.8 10.663 15.716C10.327 15.6273 9.963 15.576 9.571 15.562C9.24433 15.5527 9.00867 15.5457 8.864 15.541C8.71933 15.5317 8.62133 15.527 8.57 15.527C8.52333 15.527 8.479 15.527 8.437 15.527V14.141C8.48833 14.141 8.577 14.141 8.703 14.141C8.83367 14.141 8.969 14.141 9.109 14.141C9.249 14.1363 9.36333 14.1317 9.452 14.127C10.0307 14.099 10.4973 13.9567 10.852 13.7C11.2113 13.4433 11.391 13.0793 11.391 12.608C11.391 12.1367 11.216 11.7657 10.866 11.495C10.5207 11.2243 10.0657 11.089 9.501 11.089C8.96433 11.089 8.50233 11.2127 8.115 11.46C7.72767 11.7027 7.429 12.0037 7.219 12.363L6.141 11.348C6.477 10.8813 6.93667 10.4917 7.52 10.179C8.10333 9.86633 8.77767 9.71 9.543 9.71C9.977 9.71 10.397 9.76833 10.803 9.885C11.209 9.997 11.573 10.1697 11.895 10.403C12.217 10.6363 12.4713 10.9327 12.658 11.292C12.8493 11.6467 12.945 12.069 12.945 12.559C12.945 13.049 12.8447 13.4923 12.644 13.889C12.448 14.2857 12.1843 14.6007 11.853 14.834C12.315 15.0067 12.6767 15.2797 12.938 15.653C13.1993 16.0217 13.33 16.493 13.33 17.067C13.33 17.711 13.1597 18.2687 12.819 18.74C12.483 19.2067 12.021 19.5683 11.433 19.825C10.8497 20.0817 10.1823 20.21 9.431 20.21ZM22.5817 21.491V20H14.8257V9.92H16.2887V18.684H21.4827V10.109H22.9457V18.684H24.0447V21.491H22.5817Z" fill="white"/>
</svg>

