<svg width="76" height="30" viewBox="0 0 76 30" fill="none" xmlns="http://www.w3.org/2000/svg">
<rect width="76" height="30" rx="8" fill="#E5F0F8"/>
<path d="M6.34 20V11.36H9.736C10.284 11.36 10.744 11.472 11.116 11.696C11.488 11.92 11.768 12.21 11.956 12.566C12.144 12.918 12.238 13.29 12.238 13.682C12.238 14.158 12.12 14.566 11.884 14.906C11.652 15.246 11.338 15.478 10.942 15.602L10.93 15.308C11.482 15.444 11.906 15.71 12.202 16.106C12.498 16.498 12.646 16.956 12.646 17.48C12.646 17.988 12.544 18.43 12.34 18.806C12.14 19.182 11.846 19.476 11.458 19.688C11.074 19.896 10.608 20 10.06 20H6.34ZM7.612 18.806H9.868C10.152 18.806 10.406 18.752 10.63 18.644C10.858 18.536 11.036 18.382 11.164 18.182C11.296 17.978 11.362 17.736 11.362 17.456C11.362 17.196 11.304 16.962 11.188 16.754C11.076 16.542 10.912 16.376 10.696 16.256C10.484 16.132 10.234 16.07 9.946 16.07H7.612V18.806ZM7.612 14.888H9.718C9.95 14.888 10.158 14.842 10.342 14.75C10.53 14.654 10.678 14.518 10.786 14.342C10.898 14.162 10.954 13.946 10.954 13.694C10.954 13.358 10.842 13.082 10.618 12.866C10.394 12.65 10.094 12.542 9.718 12.542H7.612V14.888ZM19.8483 20.18C18.9843 20.18 18.2483 19.992 17.6403 19.616C17.0323 19.236 16.5663 18.708 16.2423 18.032C15.9223 17.356 15.7623 16.572 15.7623 15.68C15.7623 14.788 15.9223 14.004 16.2423 13.328C16.5663 12.652 17.0323 12.126 17.6403 11.75C18.2483 11.37 18.9843 11.18 19.8483 11.18C20.7083 11.18 21.4423 11.37 22.0503 11.75C22.6623 12.126 23.1283 12.652 23.4483 13.328C23.7683 14.004 23.9283 14.788 23.9283 15.68C23.9283 16.572 23.7683 17.356 23.4483 18.032C23.1283 18.708 22.6623 19.236 22.0503 19.616C21.4423 19.992 20.7083 20.18 19.8483 20.18ZM19.8483 18.986C20.4603 18.994 20.9683 18.86 21.3723 18.584C21.7803 18.304 22.0863 17.916 22.2903 17.42C22.4943 16.92 22.5963 16.34 22.5963 15.68C22.5963 15.02 22.4943 14.444 22.2903 13.952C22.0863 13.456 21.7803 13.07 21.3723 12.794C20.9683 12.518 20.4603 12.378 19.8483 12.374C19.2363 12.366 18.7263 12.5 18.3183 12.776C17.9143 13.052 17.6103 13.44 17.4063 13.94C17.2023 14.44 17.0983 15.02 17.0943 15.68C17.0903 16.34 17.1903 16.918 17.3943 17.414C17.5983 17.906 17.9043 18.29 18.3123 18.566C18.7243 18.842 19.2363 18.982 19.8483 18.986ZM28.1672 20.18C27.5472 20.18 27.0272 20.03 26.6072 19.73C26.1872 19.426 25.8692 19.016 25.6532 18.5C25.4372 17.984 25.3292 17.402 25.3292 16.754C25.3292 16.106 25.4352 15.524 25.6472 15.008C25.8632 14.492 26.1792 14.086 26.5952 13.79C27.0152 13.49 27.5312 13.34 28.1432 13.34C28.7512 13.34 29.2752 13.49 29.7152 13.79C30.1592 14.086 30.5012 14.492 30.7412 15.008C30.9812 15.52 31.1012 16.102 31.1012 16.754C31.1012 17.402 30.9812 17.986 30.7412 18.506C30.5052 19.022 30.1672 19.43 29.7272 19.73C29.2912 20.03 28.7712 20.18 28.1672 20.18ZM25.1192 22.88V13.52H26.2352V18.182H26.3792V22.88H25.1192ZM27.9932 19.046C28.3932 19.046 28.7232 18.944 28.9832 18.74C29.2472 18.536 29.4432 18.262 29.5712 17.918C29.7032 17.57 29.7692 17.182 29.7692 16.754C29.7692 16.33 29.7032 15.946 29.5712 15.602C29.4432 15.258 29.2452 14.984 28.9772 14.78C28.7092 14.576 28.3672 14.474 27.9512 14.474C27.5592 14.474 27.2352 14.57 26.9792 14.762C26.7272 14.954 26.5392 15.222 26.4152 15.566C26.2952 15.91 26.2352 16.306 26.2352 16.754C26.2352 17.202 26.2952 17.598 26.4152 17.942C26.5352 18.286 26.7252 18.556 26.9852 18.752C27.2452 18.948 27.5812 19.046 27.9932 19.046ZM36.1339 20C35.7259 20.08 35.3259 20.114 34.9339 20.102C34.5419 20.09 34.1919 20.014 33.8839 19.874C33.5759 19.734 33.3439 19.514 33.1879 19.214C33.0479 18.946 32.9719 18.674 32.9599 18.398C32.9519 18.118 32.9479 17.802 32.9479 17.45V11.72H34.2079V17.39C34.2079 17.65 34.2099 17.876 34.2139 18.068C34.2219 18.26 34.2639 18.422 34.3399 18.554C34.4839 18.802 34.7119 18.944 35.0239 18.98C35.3399 19.012 35.7099 18.998 36.1339 18.938V20ZM31.7059 14.528V13.52H36.1339V14.528H31.7059ZM38.2004 22.88L39.4544 19.466L39.4724 20.474L36.6464 13.52H37.9544L40.0664 18.89H39.6824L41.6984 13.52H42.9704L39.3944 22.88H38.2004ZM48.1427 20L45.6347 11.36H46.9487L48.7667 17.894L50.5847 11.366L51.9047 11.36L53.7227 17.894L55.5407 11.36H56.8607L54.3467 20H53.0987L51.2447 13.538L49.3907 20H48.1427ZM59.1583 20.18C58.6783 20.18 58.2763 20.092 57.9523 19.916C57.6283 19.736 57.3823 19.5 57.2143 19.208C57.0503 18.912 56.9683 18.588 56.9683 18.236C56.9683 17.908 57.0263 17.62 57.1423 17.372C57.2583 17.124 57.4303 16.914 57.6583 16.742C57.8863 16.566 58.1663 16.424 58.4983 16.316C58.7863 16.232 59.1123 16.158 59.4763 16.094C59.8403 16.03 60.2223 15.97 60.6223 15.914C61.0263 15.858 61.4263 15.802 61.8223 15.746L61.3663 15.998C61.3743 15.49 61.2663 15.114 61.0423 14.87C60.8223 14.622 60.4423 14.498 59.9023 14.498C59.5623 14.498 59.2503 14.578 58.9663 14.738C58.6823 14.894 58.4843 15.154 58.3723 15.518L57.2023 15.158C57.3623 14.602 57.6663 14.16 58.1143 13.832C58.5663 13.504 59.1663 13.34 59.9143 13.34C60.4943 13.34 60.9983 13.44 61.4263 13.64C61.8583 13.836 62.1743 14.148 62.3743 14.576C62.4783 14.788 62.5423 15.012 62.5663 15.248C62.5903 15.484 62.6023 15.738 62.6023 16.01V20H61.4923V18.518L61.7083 18.71C61.4403 19.206 61.0983 19.576 60.6823 19.82C60.2703 20.06 59.7623 20.18 59.1583 20.18ZM59.3803 19.154C59.7363 19.154 60.0423 19.092 60.2983 18.968C60.5543 18.84 60.7603 18.678 60.9163 18.482C61.0723 18.286 61.1743 18.082 61.2223 17.87C61.2903 17.678 61.3283 17.462 61.3363 17.222C61.3483 16.982 61.3543 16.79 61.3543 16.646L61.7623 16.796C61.3663 16.856 61.0063 16.91 60.6823 16.958C60.3583 17.006 60.0643 17.054 59.8003 17.102C59.5403 17.146 59.3083 17.2 59.1043 17.264C58.9323 17.324 58.7783 17.396 58.6423 17.48C58.5103 17.564 58.4043 17.666 58.3243 17.786C58.2483 17.906 58.2103 18.052 58.2103 18.224C58.2103 18.392 58.2523 18.548 58.3363 18.692C58.4203 18.832 58.5483 18.944 58.7203 19.028C58.8923 19.112 59.1123 19.154 59.3803 19.154ZM64.673 22.88L65.927 19.466L65.945 20.474L63.119 13.52H64.427L66.539 18.89H66.155L68.171 13.52H69.443L65.867 22.88H64.673Z" fill="#2885C0"/>
</svg>
