<svg width="30" height="30" viewBox="0 0 30 30" fill="none" xmlns="http://www.w3.org/2000/svg">
<rect width="30" height="30" rx="8" fill="#2885C0"/>
<path d="M13.6621 20.2483C13.9008 20.0622 14.1172 19.8457 14.5501 19.4129L20.097 13.866C19.342 13.5518 18.4479 13.0356 17.6022 12.19C16.7565 11.3442 16.2403 10.4499 15.9261 9.69492L10.3791 15.2419L10.3791 15.242C9.94624 15.6748 9.7298 15.8912 9.54367 16.1299C9.3241 16.4114 9.13585 16.716 8.98226 17.0383C8.85205 17.3115 8.75526 17.6018 8.56167 18.1826L7.54084 21.2451C7.44557 21.5309 7.51995 21.846 7.73297 22.059C7.94599 22.272 8.26108 22.3464 8.54688 22.2512L11.6094 21.2303C12.1901 21.0367 12.4805 20.9399 12.7537 20.8097C13.076 20.6561 13.3806 20.4679 13.6621 20.2483Z" fill="white"/>
<path d="M21.6362 12.3268C22.7879 11.175 22.7879 9.3076 21.6362 8.15583C20.4844 7.00405 18.617 7.00405 17.4652 8.15583L16.7999 8.8211C16.809 8.84861 16.8185 8.87651 16.8283 8.90476C17.0721 9.60761 17.5322 10.529 18.3977 11.3945C19.2632 12.26 20.1846 12.7201 20.8875 12.964C20.9156 12.9737 20.9434 12.9831 20.9708 12.9922L21.6362 12.3268Z" fill="white"/>
</svg>
