<svg width="30" height="30" viewBox="0 0 30 30" fill="none" xmlns="http://www.w3.org/2000/svg">
<rect width="30" height="30" rx="8" fill="#2885C0"/>
<path d="M10.187 20.21C9.179 20.21 8.32033 19.9907 7.611 19.552C6.90167 19.1087 6.358 18.4927 5.98 17.704C5.60667 16.9153 5.42 16.0007 5.42 14.96C5.42 13.9193 5.60667 13.0047 5.98 12.216C6.358 11.4273 6.90167 10.8137 7.611 10.375C8.32033 9.93167 9.179 9.71 10.187 9.71C11.349 9.71 12.3103 10.004 13.071 10.592C13.8363 11.18 14.3683 11.971 14.667 12.965L13.183 13.364C12.987 12.6593 12.637 12.1063 12.133 11.705C11.6337 11.3037 10.985 11.103 10.187 11.103C9.473 11.103 8.878 11.264 8.402 11.586C7.926 11.908 7.56667 12.3583 7.324 12.937C7.086 13.5157 6.967 14.19 6.967 14.96C6.96233 15.73 7.079 16.4043 7.317 16.983C7.55967 17.5617 7.919 18.012 8.395 18.334C8.87567 18.656 9.473 18.817 10.187 18.817C10.985 18.817 11.6337 18.6163 12.133 18.215C12.637 17.809 12.987 17.256 13.183 16.556L14.667 16.955C14.3683 17.949 13.8363 18.74 13.071 19.328C12.3103 19.916 11.349 20.21 10.187 20.21ZM19.6576 20.21C18.9576 20.21 18.3486 20.1073 17.8306 19.902C17.3126 19.6967 16.8786 19.4307 16.5286 19.104C16.1832 18.7727 15.9196 18.4203 15.7376 18.047L17.0116 17.221C17.1236 17.4963 17.2916 17.7553 17.5156 17.998C17.7442 18.2407 18.0382 18.439 18.3976 18.593C18.7616 18.7423 19.2026 18.817 19.7206 18.817C20.2386 18.817 20.6656 18.74 21.0016 18.586C21.3376 18.4273 21.5872 18.2173 21.7506 17.956C21.9186 17.69 22.0026 17.3913 22.0026 17.06C22.0026 16.6727 21.8999 16.374 21.6946 16.164C21.4939 15.9493 21.2256 15.8 20.8896 15.716C20.5536 15.6273 20.1896 15.576 19.7976 15.562C19.4709 15.5527 19.2352 15.5457 19.0906 15.541C18.9459 15.5317 18.8479 15.527 18.7966 15.527C18.7499 15.527 18.7056 15.527 18.6636 15.527V14.141C18.7149 14.141 18.8036 14.141 18.9296 14.141C19.0602 14.141 19.1956 14.141 19.3356 14.141C19.4756 14.1363 19.5899 14.1317 19.6786 14.127C20.2572 14.099 20.7239 13.9567 21.0786 13.7C21.4379 13.4433 21.6176 13.0793 21.6176 12.608C21.6176 12.1367 21.4426 11.7657 21.0926 11.495C20.7472 11.2243 20.2922 11.089 19.7276 11.089C19.1909 11.089 18.7289 11.2127 18.3416 11.46C17.9542 11.7027 17.6556 12.0037 17.4456 12.363L16.3676 11.348C16.7036 10.8813 17.1632 10.4917 17.7466 10.179C18.3299 9.86633 19.0042 9.71 19.7696 9.71C20.2036 9.71 20.6236 9.76833 21.0296 9.885C21.4356 9.997 21.7996 10.1697 22.1216 10.403C22.4436 10.6363 22.6979 10.9327 22.8846 11.292C23.0759 11.6467 23.1716 12.069 23.1716 12.559C23.1716 13.049 23.0712 13.4923 22.8706 13.889C22.6746 14.2857 22.4109 14.6007 22.0796 14.834C22.5416 15.0067 22.9032 15.2797 23.1646 15.653C23.4259 16.0217 23.5566 16.493 23.5566 17.067C23.5566 17.711 23.3862 18.2687 23.0456 18.74C22.7096 19.2067 22.2476 19.5683 21.6596 19.825C21.0762 20.0817 20.4089 20.21 19.6576 20.21Z" fill="white"/>
</svg>
