<svg width="54" height="30" viewBox="0 0 54 30" fill="none" xmlns="http://www.w3.org/2000/svg">
<rect width="54" height="30" rx="8" fill="#E5F0F8"/>
<path d="M9.946 20.18C9.082 20.18 8.346 19.992 7.738 19.616C7.13 19.236 6.664 18.708 6.34 18.032C6.02 17.356 5.86 16.572 5.86 15.68C5.86 14.788 6.02 14.004 6.34 13.328C6.664 12.652 7.13 12.126 7.738 11.75C8.346 11.37 9.082 11.18 9.946 11.18C10.942 11.18 11.766 11.432 12.418 11.936C13.074 12.44 13.53 13.118 13.786 13.97L12.514 14.312C12.346 13.708 12.046 13.234 11.614 12.89C11.186 12.546 10.63 12.374 9.946 12.374C9.334 12.374 8.824 12.512 8.416 12.788C8.008 13.064 7.7 13.45 7.492 13.946C7.288 14.442 7.186 15.02 7.186 15.68C7.182 16.34 7.282 16.918 7.486 17.414C7.694 17.91 8.002 18.296 8.41 18.572C8.822 18.848 9.334 18.986 9.946 18.986C10.63 18.986 11.186 18.814 11.614 18.47C12.046 18.122 12.346 17.648 12.514 17.048L13.786 17.39C13.53 18.242 13.074 18.92 12.418 19.424C11.766 19.928 10.942 20.18 9.946 20.18ZM16.7796 20V14.648H14.5656V13.52H20.2476V14.648H18.0336V20H16.7796ZM26.8469 13.52V20H25.6409V15.494L22.4009 20H21.3809V13.52H22.5869V17.936L25.8329 13.52H26.8469ZM28.5176 20L28.5236 13.52H29.7956V16.64L32.3396 13.52H33.9356L31.2476 16.76L34.2116 20H32.5076L29.7956 16.88V20H28.5176ZM37.4562 20.18C36.8122 20.18 36.2462 20.04 35.7582 19.76C35.2742 19.476 34.8962 19.082 34.6242 18.578C34.3562 18.07 34.2222 17.482 34.2222 16.814C34.2222 16.106 34.3542 15.492 34.6182 14.972C34.8862 14.452 35.2582 14.05 35.7342 13.766C36.2102 13.482 36.7642 13.34 37.3962 13.34C38.0562 13.34 38.6182 13.494 39.0822 13.802C39.5462 14.106 39.8922 14.54 40.1202 15.104C40.3522 15.668 40.4442 16.338 40.3962 17.114H39.1422V16.658C39.1342 15.906 38.9902 15.35 38.7102 14.99C38.4342 14.63 38.0122 14.45 37.4442 14.45C36.8162 14.45 36.3442 14.648 36.0282 15.044C35.7122 15.44 35.5542 16.012 35.5542 16.76C35.5542 17.472 35.7122 18.024 36.0282 18.416C36.3442 18.804 36.8002 18.998 37.3962 18.998C37.7882 18.998 38.1262 18.91 38.4102 18.734C38.6982 18.554 38.9222 18.298 39.0822 17.966L40.3122 18.356C40.0602 18.936 39.6782 19.386 39.1662 19.706C38.6542 20.022 38.0842 20.18 37.4562 20.18ZM35.1462 17.114V16.136H39.7722V17.114H35.1462ZM44.7843 20.18C44.1643 20.18 43.6443 20.03 43.2243 19.73C42.8043 19.426 42.4863 19.016 42.2703 18.5C42.0543 17.984 41.9463 17.402 41.9463 16.754C41.9463 16.106 42.0523 15.524 42.2643 15.008C42.4803 14.492 42.7963 14.086 43.2123 13.79C43.6323 13.49 44.1483 13.34 44.7603 13.34C45.3683 13.34 45.8923 13.49 46.3323 13.79C46.7763 14.086 47.1183 14.492 47.3583 15.008C47.5983 15.52 47.7183 16.102 47.7183 16.754C47.7183 17.402 47.5983 17.986 47.3583 18.506C47.1223 19.022 46.7843 19.43 46.3443 19.73C45.9083 20.03 45.3883 20.18 44.7843 20.18ZM41.7363 22.88V13.52H42.8523V18.182H42.9963V22.88H41.7363ZM44.6103 19.046C45.0103 19.046 45.3403 18.944 45.6003 18.74C45.8643 18.536 46.0603 18.262 46.1883 17.918C46.3203 17.57 46.3863 17.182 46.3863 16.754C46.3863 16.33 46.3203 15.946 46.1883 15.602C46.0603 15.258 45.8623 14.984 45.5943 14.78C45.3263 14.576 44.9843 14.474 44.5683 14.474C44.1763 14.474 43.8523 14.57 43.5963 14.762C43.3443 14.954 43.1563 15.222 43.0323 15.566C42.9123 15.91 42.8523 16.306 42.8523 16.754C42.8523 17.202 42.9123 17.598 43.0323 17.942C43.1523 18.286 43.3423 18.556 43.6023 18.752C43.8623 18.948 44.1983 19.046 44.6103 19.046Z" fill="#2885C0"/>
</svg>
