<svg width="30" height="30" viewBox="0 0 30 30" fill="none" xmlns="http://www.w3.org/2000/svg">
<rect width="30" height="30" rx="8" fill="#FF5D5D"/>
<path d="M8.25 10.6848C8.25 10.389 8.49503 10.1491 8.79729 10.1491H12.3884C12.3933 9.51822 12.4617 8.65327 13.0878 8.0545C13.5805 7.58328 14.2561 7.29199 15 7.29199C15.7439 7.29199 16.4195 7.58328 16.9122 8.0545C17.5383 8.65327 17.6067 9.51821 17.6116 10.1491H21.2027C21.505 10.1491 21.75 10.389 21.75 10.6848C21.75 10.9807 21.505 11.2206 21.2027 11.2206H8.79729C8.49503 11.2206 8.25 10.9807 8.25 10.6848Z" fill="white"/>
<path fill-rule="evenodd" clip-rule="evenodd" d="M14.6967 22.292H15.3033C17.3903 22.292 18.4339 22.292 19.1123 21.6275C19.7908 20.9631 19.8602 19.8732 19.9991 17.6934L20.1991 14.5524C20.2744 13.3697 20.3121 12.7783 19.9717 12.4036C19.6313 12.0288 19.0565 12.0288 17.907 12.0288H12.093C10.9435 12.0288 10.3687 12.0288 10.0283 12.4036C9.68792 12.7783 9.72558 13.3697 9.80091 14.5524L10.0009 17.6934C10.1398 19.8732 10.2092 20.9631 10.8877 21.6275C11.5661 22.292 12.6097 22.292 14.6967 22.292ZM13.6847 14.9334C13.6538 14.608 13.3781 14.3706 13.069 14.4031C12.7599 14.4356 12.5344 14.7258 12.5653 15.0512L12.9403 18.9986C12.9712 19.3239 13.2469 19.5613 13.556 19.5288C13.8651 19.4963 14.0906 19.2061 14.0597 18.8807L13.6847 14.9334ZM16.931 14.4031C17.2401 14.4356 17.4656 14.7258 17.4347 15.0512L17.0597 18.9986C17.0288 19.3239 16.7531 19.5613 16.444 19.5288C16.1349 19.4963 15.9094 19.2061 15.9403 18.8807L16.3153 14.9334C16.3462 14.608 16.6219 14.3706 16.931 14.4031Z" fill="white"/>
</svg>
